<svg width="489" height="70" viewBox="0 0 489 70" fill="none" xmlns="http://www.w3.org/2000/svg">
<rect width="489" height="70" rx="7" fill="white"/>
<path d="M47.1562 34.7969C47.1562 35.2604 47.0677 35.6979 46.8906 36.1094C46.7188 36.5156 46.4792 36.8724 46.1719 37.1797C45.8698 37.4818 45.513 37.7214 45.1016 37.8984C44.6953 38.0703 44.2604 38.1562 43.7969 38.1562C43.3802 38.1562 42.9792 38.0833 42.5938 37.9375C42.2135 37.7917 41.8698 37.5781 41.5625 37.2969C41.2552 37.5781 40.9089 37.7917 40.5234 37.9375C40.138 38.0833 39.737 38.1562 39.3203 38.1562C38.8568 38.1562 38.4193 38.0703 38.0078 37.8984C37.6016 37.7214 37.2448 37.4818 36.9375 37.1797C36.6354 36.8724 36.3958 36.5156 36.2188 36.1094C36.0469 35.6979 35.9609 35.2604 35.9609 34.7969V26.7969H38.2031V34.7969C38.2031 34.9531 38.2318 35.1016 38.2891 35.2422C38.3464 35.3776 38.4245 35.4974 38.5234 35.6016C38.6276 35.7005 38.7474 35.7786 38.8828 35.8359C39.0182 35.8932 39.1641 35.9219 39.3203 35.9219C39.4766 35.9219 39.6224 35.8932 39.7578 35.8359C39.8932 35.7786 40.0104 35.7005 40.1094 35.6016C40.2135 35.4974 40.2943 35.3776 40.3516 35.2422C40.4089 35.1016 40.4375 34.9531 40.4375 34.7969V26.7969H42.6797V34.7969C42.6797 34.9531 42.7083 35.1016 42.7656 35.2422C42.8229 35.3776 42.901 35.4974 43 35.6016C43.1042 35.7005 43.224 35.7786 43.3594 35.8359C43.4948 35.8932 43.6406 35.9219 43.7969 35.9219C43.9531 35.9219 44.099 35.8932 44.2344 35.8359C44.3698 35.7786 44.487 35.7005 44.5859 35.6016C44.6901 35.4974 44.7708 35.3776 44.8281 35.2422C44.8906 35.1016 44.9219 34.9531 44.9219 34.7969V26.7969H47.1562V34.7969ZM50.9922 38H48.8594V26.3047H50.9922V30C51.2474 29.8073 51.5104 29.6719 51.7812 29.5938C52.0521 29.5104 52.3281 29.4688 52.6094 29.4688C53.125 29.4688 53.6094 29.5677 54.0625 29.7656C54.5156 29.9583 54.9089 30.2266 55.2422 30.5703C55.5807 30.9089 55.8464 31.3073 56.0391 31.7656C56.237 32.2188 56.3359 32.7031 56.3359 33.2188V38H54.1875V33.2188H54.2031C54.2031 33 54.1615 32.7943 54.0781 32.6016C53.9948 32.4036 53.8802 32.2318 53.7344 32.0859C53.5885 31.9401 53.4193 31.8255 53.2266 31.7422C53.0339 31.6589 52.8281 31.6172 52.6094 31.6172C52.3854 31.6172 52.1745 31.6589 51.9766 31.7422C51.7786 31.8255 51.6068 31.9401 51.4609 32.0859C51.3151 32.2318 51.2005 32.4036 51.1172 32.6016C51.0339 32.7943 50.9922 33 50.9922 33.2188V38ZM65.9609 38H65.4453L64.6172 36.8516C64.4141 37.0339 64.1979 37.2057 63.9688 37.3672C63.7448 37.5234 63.5078 37.6615 63.2578 37.7812C63.0078 37.8958 62.75 37.987 62.4844 38.0547C62.224 38.1224 61.9583 38.1562 61.6875 38.1562C61.099 38.1562 60.5443 38.0573 60.0234 37.8594C59.5078 37.6615 59.0547 37.375 58.6641 37C58.2786 36.6198 57.974 36.1562 57.75 35.6094C57.526 35.0625 57.4141 34.4401 57.4141 33.7422C57.4141 33.0911 57.526 32.4948 57.75 31.9531C57.974 31.4062 58.2786 30.9375 58.6641 30.5469C59.0547 30.1562 59.5078 29.8542 60.0234 29.6406C60.5443 29.4219 61.099 29.3125 61.6875 29.3125C61.9583 29.3125 62.2266 29.3464 62.4922 29.4141C62.7578 29.4818 63.0156 29.5755 63.2656 29.6953C63.5156 29.8151 63.7526 29.9557 63.9766 30.1172C64.2057 30.2786 64.4193 30.4531 64.6172 30.6406L65.4453 29.6484H65.9609V38ZM63.8125 33.7422C63.8125 33.4505 63.7552 33.1693 63.6406 32.8984C63.5312 32.6224 63.3802 32.3802 63.1875 32.1719C62.9948 31.9583 62.7682 31.7891 62.5078 31.6641C62.2526 31.5339 61.9792 31.4688 61.6875 31.4688C61.3958 31.4688 61.1198 31.5182 60.8594 31.6172C60.6042 31.7161 60.3802 31.862 60.1875 32.0547C60 32.2474 59.8516 32.487 59.7422 32.7734C59.6328 33.0547 59.5781 33.3776 59.5781 33.7422C59.5781 34.1068 59.6328 34.4323 59.7422 34.7188C59.8516 35 60 35.237 60.1875 35.4297C60.3802 35.6224 60.6042 35.7682 60.8594 35.8672C61.1198 35.9661 61.3958 36.0156 61.6875 36.0156C61.9792 36.0156 62.2526 35.9531 62.5078 35.8281C62.7682 35.6979 62.9948 35.5286 63.1875 35.3203C63.3802 35.1068 63.5312 34.8646 63.6406 34.5938C63.7552 34.3177 63.8125 34.0339 63.8125 33.7422ZM71.7891 38C71.2734 38 70.7891 37.9036 70.3359 37.7109C69.8828 37.513 69.4844 37.2448 69.1406 36.9062C68.8021 36.5625 68.5339 36.1641 68.3359 35.7109C68.1432 35.2578 68.0469 34.7734 68.0469 34.2578V31.7734H67.0078V29.6484H68.0469V26.3047H70.1719V29.6484H73.4062V31.7734H70.1719V34.2578C70.1719 34.4818 70.2135 34.6927 70.2969 34.8906C70.3802 35.0833 70.4948 35.2526 70.6406 35.3984C70.7865 35.5443 70.9583 35.6615 71.1562 35.75C71.3542 35.8333 71.5651 35.875 71.7891 35.875H73.4062V38H71.7891ZM87.1797 38H86.6641L85.8359 36.8516C85.6328 37.0339 85.4167 37.2057 85.1875 37.3672C84.9635 37.5234 84.7266 37.6615 84.4766 37.7812C84.2266 37.8958 83.9688 37.987 83.7031 38.0547C83.4427 38.1224 83.1771 38.1562 82.9062 38.1562C82.3177 38.1562 81.763 38.0469 81.2422 37.8281C80.7266 37.6042 80.2734 37.2969 79.8828 36.9062C79.4974 36.5104 79.1927 36.0443 78.9688 35.5078C78.7448 34.9661 78.6328 34.3776 78.6328 33.7422C78.6328 33.112 78.7448 32.526 78.9688 31.9844C79.1927 31.4427 79.4974 30.974 79.8828 30.5781C80.2734 30.1823 80.7266 29.8724 81.2422 29.6484C81.763 29.4245 82.3177 29.3125 82.9062 29.3125C83.0938 29.3125 83.2865 29.3281 83.4844 29.3594C83.6875 29.3906 83.8828 29.4427 84.0703 29.5156C84.263 29.5833 84.4427 29.6745 84.6094 29.7891C84.776 29.9036 84.9167 30.0443 85.0312 30.2109V26.3047H87.1797V38ZM85.0312 33.7422C85.0312 33.4505 84.974 33.1693 84.8594 32.8984C84.75 32.6224 84.599 32.3802 84.4062 32.1719C84.2135 31.9583 83.987 31.7891 83.7266 31.6641C83.4714 31.5339 83.1979 31.4688 82.9062 31.4688C82.6146 31.4688 82.3385 31.5208 82.0781 31.625C81.8229 31.7292 81.599 31.8802 81.4062 32.0781C81.2188 32.2708 81.0703 32.5078 80.9609 32.7891C80.8516 33.0703 80.7969 33.388 80.7969 33.7422C80.7969 34.0495 80.8516 34.3411 80.9609 34.6172C81.0703 34.8932 81.2188 35.1354 81.4062 35.3438C81.599 35.5521 81.8229 35.7161 82.0781 35.8359C82.3385 35.9557 82.6146 36.0156 82.9062 36.0156C83.1979 36.0156 83.4714 35.9531 83.7266 35.8281C83.987 35.6979 84.2135 35.5286 84.4062 35.3203C84.599 35.1068 84.75 34.8646 84.8594 34.5938C84.974 34.3177 85.0312 34.0339 85.0312 33.7422ZM96.8984 33.7422C96.8984 34.3672 96.7865 34.9505 96.5625 35.4922C96.3385 36.0286 96.0339 36.4948 95.6484 36.8906C95.263 37.2812 94.8099 37.5911 94.2891 37.8203C93.7734 38.0443 93.2188 38.1562 92.625 38.1562C92.0365 38.1562 91.4818 38.0443 90.9609 37.8203C90.4453 37.5911 89.9922 37.2812 89.6016 36.8906C89.2161 36.4948 88.9115 36.0286 88.6875 35.4922C88.4635 34.9505 88.3516 34.3672 88.3516 33.7422C88.3516 33.1068 88.4635 32.5182 88.6875 31.9766C88.9115 31.4349 89.2161 30.9688 89.6016 30.5781C89.9922 30.1823 90.4453 29.8724 90.9609 29.6484C91.4818 29.4245 92.0365 29.3125 92.625 29.3125C93.2188 29.3125 93.7734 29.4193 94.2891 29.6328C94.8099 29.8411 95.263 30.1406 95.6484 30.5312C96.0339 30.9167 96.3385 31.3828 96.5625 31.9297C96.7865 32.4714 96.8984 33.0755 96.8984 33.7422ZM94.75 33.7422C94.75 33.3984 94.6927 33.0885 94.5781 32.8125C94.4688 32.5312 94.3177 32.2917 94.125 32.0938C93.9323 31.8906 93.7057 31.737 93.4453 31.6328C93.1901 31.5234 92.9167 31.4688 92.625 31.4688C92.3333 31.4688 92.0573 31.5234 91.7969 31.6328C91.5417 31.737 91.3177 31.8906 91.125 32.0938C90.9375 32.2917 90.7891 32.5312 90.6797 32.8125C90.5703 33.0885 90.5156 33.3984 90.5156 33.7422C90.5156 34.0651 90.5703 34.3646 90.6797 34.6406C90.7891 34.9167 90.9375 35.1562 91.125 35.3594C91.3177 35.5625 91.5417 35.724 91.7969 35.8438C92.0573 35.9583 92.3333 36.0156 92.625 36.0156C92.9167 36.0156 93.1901 35.9609 93.4453 35.8516C93.7057 35.7422 93.9323 35.5885 94.125 35.3906C94.3177 35.1927 94.4688 34.9531 94.5781 34.6719C94.6927 34.3906 94.75 34.0807 94.75 33.7422ZM104.578 41.1875V39.0391L105.766 39.0547C105.974 39.0547 106.174 39.0208 106.367 38.9531C106.56 38.8854 106.737 38.7917 106.898 38.6719C107.065 38.5521 107.211 38.4089 107.336 38.2422C107.461 38.0807 107.562 37.9036 107.641 37.7109C107.406 37.8099 107.167 37.9089 106.922 38.0078C106.682 38.1068 106.44 38.1562 106.195 38.1562C105.68 38.1562 105.195 38.0651 104.742 37.8828C104.289 37.7005 103.891 37.4427 103.547 37.1094C103.208 36.7708 102.94 36.362 102.742 35.8828C102.549 35.3984 102.453 34.8568 102.453 34.2578V29.6328H104.578V34.2578C104.578 34.5547 104.62 34.8151 104.703 35.0391C104.792 35.2578 104.909 35.4427 105.055 35.5938C105.201 35.7396 105.37 35.849 105.562 35.9219C105.76 35.9948 105.971 36.0312 106.195 36.0312C106.414 36.0312 106.62 35.9818 106.812 35.8828C107.01 35.7786 107.182 35.6432 107.328 35.4766C107.474 35.3099 107.589 35.1224 107.672 34.9141C107.755 34.7005 107.797 34.4818 107.797 34.2578V29.6328H109.945V36.9453C109.94 37.5339 109.826 38.0859 109.602 38.6016C109.378 39.1172 109.07 39.5677 108.68 39.9531C108.294 40.3385 107.844 40.6432 107.328 40.8672C106.812 41.0911 106.26 41.2031 105.672 41.2031L104.578 41.1875ZM119.664 33.7422C119.664 34.3672 119.552 34.9505 119.328 35.4922C119.104 36.0286 118.799 36.4948 118.414 36.8906C118.029 37.2812 117.576 37.5911 117.055 37.8203C116.539 38.0443 115.984 38.1562 115.391 38.1562C114.802 38.1562 114.247 38.0443 113.727 37.8203C113.211 37.5911 112.758 37.2812 112.367 36.8906C111.982 36.4948 111.677 36.0286 111.453 35.4922C111.229 34.9505 111.117 34.3672 111.117 33.7422C111.117 33.1068 111.229 32.5182 111.453 31.9766C111.677 31.4349 111.982 30.9688 112.367 30.5781C112.758 30.1823 113.211 29.8724 113.727 29.6484C114.247 29.4245 114.802 29.3125 115.391 29.3125C115.984 29.3125 116.539 29.4193 117.055 29.6328C117.576 29.8411 118.029 30.1406 118.414 30.5312C118.799 30.9167 119.104 31.3828 119.328 31.9297C119.552 32.4714 119.664 33.0755 119.664 33.7422ZM117.516 33.7422C117.516 33.3984 117.458 33.0885 117.344 32.8125C117.234 32.5312 117.083 32.2917 116.891 32.0938C116.698 31.8906 116.471 31.737 116.211 31.6328C115.956 31.5234 115.682 31.4688 115.391 31.4688C115.099 31.4688 114.823 31.5234 114.562 31.6328C114.307 31.737 114.083 31.8906 113.891 32.0938C113.703 32.2917 113.555 32.5312 113.445 32.8125C113.336 33.0885 113.281 33.3984 113.281 33.7422C113.281 34.0651 113.336 34.3646 113.445 34.6406C113.555 34.9167 113.703 35.1562 113.891 35.3594C114.083 35.5625 114.307 35.724 114.562 35.8438C114.823 35.9583 115.099 36.0156 115.391 36.0156C115.682 36.0156 115.956 35.9609 116.211 35.8516C116.471 35.7422 116.698 35.5885 116.891 35.3906C117.083 35.1927 117.234 34.9531 117.344 34.6719C117.458 34.3906 117.516 34.0807 117.516 33.7422ZM126.992 37.0234C126.82 37.1797 126.635 37.3281 126.438 37.4688C126.245 37.6042 126.042 37.724 125.828 37.8281C125.615 37.9271 125.393 38.0052 125.164 38.0625C124.94 38.125 124.711 38.1562 124.477 38.1562C123.961 38.1562 123.477 38.0651 123.023 37.8828C122.57 37.7005 122.172 37.4427 121.828 37.1094C121.49 36.7708 121.221 36.362 121.023 35.8828C120.831 35.3984 120.734 34.8568 120.734 34.2578V29.6328H122.859V34.2578C122.859 34.5391 122.901 34.7917 122.984 35.0156C123.073 35.2344 123.19 35.4193 123.336 35.5703C123.482 35.7214 123.651 35.8359 123.844 35.9141C124.042 35.9922 124.253 36.0312 124.477 36.0312C124.695 36.0312 124.901 35.9818 125.094 35.8828C125.292 35.7786 125.464 35.6432 125.609 35.4766C125.755 35.3099 125.87 35.1224 125.953 34.9141C126.036 34.7005 126.078 34.4818 126.078 34.2578V29.6328H128.211V38H127.695L126.992 37.0234ZM144.891 34.9766C144.891 35.4141 144.807 35.8281 144.641 36.2188C144.474 36.6042 144.245 36.9401 143.953 37.2266C143.667 37.513 143.328 37.7396 142.938 37.9062C142.552 38.0729 142.138 38.1562 141.695 38.1562C141.299 38.1562 140.919 38.0885 140.555 37.9531C140.19 37.8125 139.859 37.6094 139.562 37.3438C139.271 37.6094 138.943 37.8125 138.578 37.9531C138.219 38.0885 137.839 38.1562 137.438 38.1562C136.995 38.1562 136.581 38.0729 136.195 37.9062C135.81 37.7396 135.471 37.513 135.18 37.2266C134.893 36.9401 134.667 36.6042 134.5 36.2188C134.333 35.8281 134.25 35.4141 134.25 34.9766V29.6484H136.383V34.9766C136.383 35.1224 136.409 35.2604 136.461 35.3906C136.518 35.5156 136.594 35.6276 136.688 35.7266C136.786 35.8203 136.898 35.8958 137.023 35.9531C137.154 36.0052 137.292 36.0312 137.438 36.0312C137.583 36.0312 137.721 36.0052 137.852 35.9531C137.982 35.8958 138.096 35.8203 138.195 35.7266C138.294 35.6276 138.37 35.5156 138.422 35.3906C138.479 35.2604 138.508 35.1224 138.508 34.9766V29.6484H140.633V34.9766C140.633 35.1224 140.661 35.2604 140.719 35.3906C140.776 35.5156 140.852 35.6276 140.945 35.7266C141.044 35.8203 141.156 35.8958 141.281 35.9531C141.411 36.0052 141.549 36.0312 141.695 36.0312C141.841 36.0312 141.979 36.0052 142.109 35.9531C142.24 35.8958 142.352 35.8203 142.445 35.7266C142.544 35.6276 142.622 35.5156 142.68 35.3906C142.737 35.2604 142.766 35.1224 142.766 34.9766V29.6484H144.891V34.9766ZM154.539 38H154.023L153.195 36.8516C152.992 37.0339 152.776 37.2057 152.547 37.3672C152.323 37.5234 152.086 37.6615 151.836 37.7812C151.586 37.8958 151.328 37.987 151.062 38.0547C150.802 38.1224 150.536 38.1562 150.266 38.1562C149.677 38.1562 149.122 38.0573 148.602 37.8594C148.086 37.6615 147.633 37.375 147.242 37C146.857 36.6198 146.552 36.1562 146.328 35.6094C146.104 35.0625 145.992 34.4401 145.992 33.7422C145.992 33.0911 146.104 32.4948 146.328 31.9531C146.552 31.4062 146.857 30.9375 147.242 30.5469C147.633 30.1562 148.086 29.8542 148.602 29.6406C149.122 29.4219 149.677 29.3125 150.266 29.3125C150.536 29.3125 150.805 29.3464 151.07 29.4141C151.336 29.4818 151.594 29.5755 151.844 29.6953C152.094 29.8151 152.331 29.9557 152.555 30.1172C152.784 30.2786 152.997 30.4531 153.195 30.6406L154.023 29.6484H154.539V38ZM152.391 33.7422C152.391 33.4505 152.333 33.1693 152.219 32.8984C152.109 32.6224 151.958 32.3802 151.766 32.1719C151.573 31.9583 151.346 31.7891 151.086 31.6641C150.831 31.5339 150.557 31.4688 150.266 31.4688C149.974 31.4688 149.698 31.5182 149.438 31.6172C149.182 31.7161 148.958 31.862 148.766 32.0547C148.578 32.2474 148.43 32.487 148.32 32.7734C148.211 33.0547 148.156 33.3776 148.156 33.7422C148.156 34.1068 148.211 34.4323 148.32 34.7188C148.43 35 148.578 35.237 148.766 35.4297C148.958 35.6224 149.182 35.7682 149.438 35.8672C149.698 35.9661 149.974 36.0156 150.266 36.0156C150.557 36.0156 150.831 35.9531 151.086 35.8281C151.346 35.6979 151.573 35.5286 151.766 35.3203C151.958 35.1068 152.109 34.8646 152.219 34.5938C152.333 34.3177 152.391 34.0339 152.391 33.7422ZM158.305 38H156.172V29.6328H156.688L157.391 30.4453C157.734 30.1328 158.122 29.8932 158.555 29.7266C158.992 29.5547 159.448 29.4688 159.922 29.4688C160.432 29.4688 160.914 29.5677 161.367 29.7656C161.82 29.9583 162.216 30.2266 162.555 30.5703C162.893 30.9089 163.159 31.3073 163.352 31.7656C163.549 32.2188 163.648 32.7031 163.648 33.2188V38H161.516V33.2188C161.516 33 161.474 32.7943 161.391 32.6016C161.307 32.4036 161.193 32.2318 161.047 32.0859C160.901 31.9401 160.732 31.8255 160.539 31.7422C160.346 31.6589 160.141 31.6172 159.922 31.6172C159.698 31.6172 159.487 31.6589 159.289 31.7422C159.091 31.8255 158.919 31.9401 158.773 32.0859C158.628 32.2318 158.513 32.4036 158.43 32.6016C158.346 32.7943 158.305 33 158.305 33.2188V38ZM169.258 38C168.742 38 168.258 37.9036 167.805 37.7109C167.352 37.513 166.953 37.2448 166.609 36.9062C166.271 36.5625 166.003 36.1641 165.805 35.7109C165.612 35.2578 165.516 34.7734 165.516 34.2578V31.7734H164.477V29.6484H165.516V26.3047H167.641V29.6484H170.875V31.7734H167.641V34.2578C167.641 34.4818 167.682 34.6927 167.766 34.8906C167.849 35.0833 167.964 35.2526 168.109 35.3984C168.255 35.5443 168.427 35.6615 168.625 35.75C168.823 35.8333 169.034 35.875 169.258 35.875H170.875V38H169.258ZM180.758 38C180.242 38 179.758 37.9036 179.305 37.7109C178.852 37.513 178.453 37.2448 178.109 36.9062C177.771 36.5625 177.503 36.1641 177.305 35.7109C177.112 35.2578 177.016 34.7734 177.016 34.2578V31.7734H175.977V29.6484H177.016V26.3047H179.141V29.6484H182.375V31.7734H179.141V34.2578C179.141 34.4818 179.182 34.6927 179.266 34.8906C179.349 35.0833 179.464 35.2526 179.609 35.3984C179.755 35.5443 179.927 35.6615 180.125 35.75C180.323 35.8333 180.534 35.875 180.758 35.875H182.375V38H180.758ZM191.664 33.7422C191.664 34.3672 191.552 34.9505 191.328 35.4922C191.104 36.0286 190.799 36.4948 190.414 36.8906C190.029 37.2812 189.576 37.5911 189.055 37.8203C188.539 38.0443 187.984 38.1562 187.391 38.1562C186.802 38.1562 186.247 38.0443 185.727 37.8203C185.211 37.5911 184.758 37.2812 184.367 36.8906C183.982 36.4948 183.677 36.0286 183.453 35.4922C183.229 34.9505 183.117 34.3672 183.117 33.7422C183.117 33.1068 183.229 32.5182 183.453 31.9766C183.677 31.4349 183.982 30.9688 184.367 30.5781C184.758 30.1823 185.211 29.8724 185.727 29.6484C186.247 29.4245 186.802 29.3125 187.391 29.3125C187.984 29.3125 188.539 29.4193 189.055 29.6328C189.576 29.8411 190.029 30.1406 190.414 30.5312C190.799 30.9167 191.104 31.3828 191.328 31.9297C191.552 32.4714 191.664 33.0755 191.664 33.7422ZM189.516 33.7422C189.516 33.3984 189.458 33.0885 189.344 32.8125C189.234 32.5312 189.083 32.2917 188.891 32.0938C188.698 31.8906 188.471 31.737 188.211 31.6328C187.956 31.5234 187.682 31.4688 187.391 31.4688C187.099 31.4688 186.823 31.5234 186.562 31.6328C186.307 31.737 186.083 31.8906 185.891 32.0938C185.703 32.2917 185.555 32.5312 185.445 32.8125C185.336 33.0885 185.281 33.3984 185.281 33.7422C185.281 34.0651 185.336 34.3646 185.445 34.6406C185.555 34.9167 185.703 35.1562 185.891 35.3594C186.083 35.5625 186.307 35.724 186.562 35.8438C186.823 35.9583 187.099 36.0156 187.391 36.0156C187.682 36.0156 187.956 35.9609 188.211 35.8516C188.471 35.7422 188.698 35.5885 188.891 35.3906C189.083 35.1927 189.234 34.9531 189.344 34.6719C189.458 34.3906 189.516 34.0807 189.516 33.7422ZM199.477 38H197.328V26.3047H199.477V38ZM204.438 35.9531C204.521 35.9792 204.604 35.9974 204.688 36.0078C204.771 36.013 204.854 36.0156 204.938 36.0156C205.146 36.0156 205.346 35.987 205.539 35.9297C205.732 35.8724 205.911 35.7917 206.078 35.6875C206.25 35.5781 206.401 35.4479 206.531 35.2969C206.667 35.1406 206.776 34.9688 206.859 34.7812L208.422 36.3516C208.224 36.6328 207.995 36.8854 207.734 37.1094C207.479 37.3333 207.201 37.5234 206.898 37.6797C206.602 37.8359 206.286 37.9531 205.953 38.0312C205.625 38.1146 205.286 38.1562 204.938 38.1562C204.349 38.1562 203.794 38.0469 203.273 37.8281C202.758 37.6094 202.305 37.3047 201.914 36.9141C201.529 36.5234 201.224 36.0599 201 35.5234C200.776 34.9818 200.664 34.388 200.664 33.7422C200.664 33.0807 200.776 32.4766 201 31.9297C201.224 31.3828 201.529 30.9167 201.914 30.5312C202.305 30.1458 202.758 29.8464 203.273 29.6328C203.794 29.4193 204.349 29.3125 204.938 29.3125C205.286 29.3125 205.628 29.3542 205.961 29.4375C206.294 29.5208 206.609 29.6406 206.906 29.7969C207.208 29.9531 207.49 30.1458 207.75 30.375C208.01 30.599 208.24 30.8516 208.438 31.1328L204.438 35.9531ZM205.531 31.5547C205.432 31.5182 205.333 31.4948 205.234 31.4844C205.141 31.474 205.042 31.4688 204.938 31.4688C204.646 31.4688 204.37 31.5234 204.109 31.6328C203.854 31.737 203.63 31.888 203.438 32.0859C203.25 32.2839 203.102 32.5234 202.992 32.8047C202.883 33.0807 202.828 33.3932 202.828 33.7422C202.828 33.8203 202.831 33.9089 202.836 34.0078C202.846 34.1068 202.859 34.2083 202.875 34.3125C202.896 34.4115 202.919 34.5078 202.945 34.6016C202.971 34.6953 203.005 34.7786 203.047 34.8516L205.531 31.5547ZM217.555 38H217.039L216.211 36.8516C216.008 37.0339 215.792 37.2057 215.562 37.3672C215.339 37.5234 215.102 37.6615 214.852 37.7812C214.602 37.8958 214.344 37.987 214.078 38.0547C213.818 38.1224 213.552 38.1562 213.281 38.1562C212.693 38.1562 212.138 38.0573 211.617 37.8594C211.102 37.6615 210.648 37.375 210.258 37C209.872 36.6198 209.568 36.1562 209.344 35.6094C209.12 35.0625 209.008 34.4401 209.008 33.7422C209.008 33.0911 209.12 32.4948 209.344 31.9531C209.568 31.4062 209.872 30.9375 210.258 30.5469C210.648 30.1562 211.102 29.8542 211.617 29.6406C212.138 29.4219 212.693 29.3125 213.281 29.3125C213.552 29.3125 213.82 29.3464 214.086 29.4141C214.352 29.4818 214.609 29.5755 214.859 29.6953C215.109 29.8151 215.346 29.9557 215.57 30.1172C215.799 30.2786 216.013 30.4531 216.211 30.6406L217.039 29.6484H217.555V38ZM215.406 33.7422C215.406 33.4505 215.349 33.1693 215.234 32.8984C215.125 32.6224 214.974 32.3802 214.781 32.1719C214.589 31.9583 214.362 31.7891 214.102 31.6641C213.846 31.5339 213.573 31.4688 213.281 31.4688C212.99 31.4688 212.714 31.5182 212.453 31.6172C212.198 31.7161 211.974 31.862 211.781 32.0547C211.594 32.2474 211.445 32.487 211.336 32.7734C211.227 33.0547 211.172 33.3776 211.172 33.7422C211.172 34.1068 211.227 34.4323 211.336 34.7188C211.445 35 211.594 35.237 211.781 35.4297C211.974 35.6224 212.198 35.7682 212.453 35.8672C212.714 35.9661 212.99 36.0156 213.281 36.0156C213.573 36.0156 213.846 35.9531 214.102 35.8281C214.362 35.6979 214.589 35.5286 214.781 35.3203C214.974 35.1068 215.125 34.8646 215.234 34.5938C215.349 34.3177 215.406 34.0339 215.406 33.7422ZM221.32 38H219.188V29.6328H219.703L220.406 30.625C220.75 30.3125 221.141 30.0729 221.578 29.9062C222.016 29.7344 222.469 29.6484 222.938 29.6484H224.82V31.7734H222.938C222.714 31.7734 222.503 31.8151 222.305 31.8984C222.107 31.9818 221.935 32.0964 221.789 32.2422C221.643 32.388 221.529 32.5599 221.445 32.7578C221.362 32.9557 221.32 33.1667 221.32 33.3906V38ZM227.945 38H225.812V29.6328H226.328L227.031 30.4453C227.375 30.1328 227.763 29.8932 228.195 29.7266C228.633 29.5547 229.089 29.4688 229.562 29.4688C230.073 29.4688 230.555 29.5677 231.008 29.7656C231.461 29.9583 231.857 30.2266 232.195 30.5703C232.534 30.9089 232.799 31.3073 232.992 31.7656C233.19 32.2188 233.289 32.7031 233.289 33.2188V38H231.156V33.2188C231.156 33 231.115 32.7943 231.031 32.6016C230.948 32.4036 230.833 32.2318 230.688 32.0859C230.542 31.9401 230.372 31.8255 230.18 31.7422C229.987 31.6589 229.781 31.6172 229.562 31.6172C229.339 31.6172 229.128 31.6589 228.93 31.7422C228.732 31.8255 228.56 31.9401 228.414 32.0859C228.268 32.2318 228.154 32.4036 228.07 32.6016C227.987 32.7943 227.945 33 227.945 33.2188V38ZM243.492 38C242.977 38 242.492 37.9036 242.039 37.7109C241.586 37.513 241.188 37.2448 240.844 36.9062C240.505 36.5625 240.237 36.1641 240.039 35.7109C239.846 35.2578 239.75 34.7734 239.75 34.2578V31.7734H238.711V29.6484H239.75V26.3047H241.875V29.6484H245.109V31.7734H241.875V34.2578C241.875 34.4818 241.917 34.6927 242 34.8906C242.083 35.0833 242.198 35.2526 242.344 35.3984C242.49 35.5443 242.661 35.6615 242.859 35.75C243.057 35.8333 243.268 35.875 243.492 35.875H245.109V38H243.492ZM254.398 33.7422C254.398 34.3672 254.286 34.9505 254.062 35.4922C253.839 36.0286 253.534 36.4948 253.148 36.8906C252.763 37.2812 252.31 37.5911 251.789 37.8203C251.273 38.0443 250.719 38.1562 250.125 38.1562C249.536 38.1562 248.982 38.0443 248.461 37.8203C247.945 37.5911 247.492 37.2812 247.102 36.8906C246.716 36.4948 246.411 36.0286 246.188 35.4922C245.964 34.9505 245.852 34.3672 245.852 33.7422C245.852 33.1068 245.964 32.5182 246.188 31.9766C246.411 31.4349 246.716 30.9688 247.102 30.5781C247.492 30.1823 247.945 29.8724 248.461 29.6484C248.982 29.4245 249.536 29.3125 250.125 29.3125C250.719 29.3125 251.273 29.4193 251.789 29.6328C252.31 29.8411 252.763 30.1406 253.148 30.5312C253.534 30.9167 253.839 31.3828 254.062 31.9297C254.286 32.4714 254.398 33.0755 254.398 33.7422ZM252.25 33.7422C252.25 33.3984 252.193 33.0885 252.078 32.8125C251.969 32.5312 251.818 32.2917 251.625 32.0938C251.432 31.8906 251.206 31.737 250.945 31.6328C250.69 31.5234 250.417 31.4688 250.125 31.4688C249.833 31.4688 249.557 31.5234 249.297 31.6328C249.042 31.737 248.818 31.8906 248.625 32.0938C248.438 32.2917 248.289 32.5312 248.18 32.8125C248.07 33.0885 248.016 33.3984 248.016 33.7422C248.016 34.0651 248.07 34.3646 248.18 34.6406C248.289 34.9167 248.438 35.1562 248.625 35.3594C248.818 35.5625 249.042 35.724 249.297 35.8438C249.557 35.9583 249.833 36.0156 250.125 36.0156C250.417 36.0156 250.69 35.9609 250.945 35.8516C251.206 35.7422 251.432 35.5885 251.625 35.3906C251.818 35.1927 251.969 34.9531 252.078 34.6719C252.193 34.3906 252.25 34.0807 252.25 33.7422ZM263.664 38H263.148L262.32 36.8516C262.117 37.0339 261.901 37.2057 261.672 37.3672C261.448 37.5234 261.211 37.6615 260.961 37.7812C260.711 37.8958 260.453 37.987 260.188 38.0547C259.927 38.1224 259.661 38.1562 259.391 38.1562C258.802 38.1562 258.247 38.0469 257.727 37.8281C257.211 37.6042 256.758 37.2969 256.367 36.9062C255.982 36.5104 255.677 36.0443 255.453 35.5078C255.229 34.9661 255.117 34.3776 255.117 33.7422C255.117 33.112 255.229 32.526 255.453 31.9844C255.677 31.4427 255.982 30.974 256.367 30.5781C256.758 30.1823 257.211 29.8724 257.727 29.6484C258.247 29.4245 258.802 29.3125 259.391 29.3125C259.578 29.3125 259.771 29.3281 259.969 29.3594C260.172 29.3906 260.367 29.4427 260.555 29.5156C260.747 29.5833 260.927 29.6745 261.094 29.7891C261.26 29.9036 261.401 30.0443 261.516 30.2109V26.3047H263.664V38ZM261.516 33.7422C261.516 33.4505 261.458 33.1693 261.344 32.8984C261.234 32.6224 261.083 32.3802 260.891 32.1719C260.698 31.9583 260.471 31.7891 260.211 31.6641C259.956 31.5339 259.682 31.4688 259.391 31.4688C259.099 31.4688 258.823 31.5208 258.562 31.625C258.307 31.7292 258.083 31.8802 257.891 32.0781C257.703 32.2708 257.555 32.5078 257.445 32.7891C257.336 33.0703 257.281 33.388 257.281 33.7422C257.281 34.0495 257.336 34.3411 257.445 34.6172C257.555 34.8932 257.703 35.1354 257.891 35.3438C258.083 35.5521 258.307 35.7161 258.562 35.8359C258.823 35.9557 259.099 36.0156 259.391 36.0156C259.682 36.0156 259.956 35.9531 260.211 35.8281C260.471 35.6979 260.698 35.5286 260.891 35.3203C261.083 35.1068 261.234 34.8646 261.344 34.5938C261.458 34.3177 261.516 34.0339 261.516 33.7422ZM273.398 38H272.883L272.055 36.8516C271.852 37.0339 271.635 37.2057 271.406 37.3672C271.182 37.5234 270.945 37.6615 270.695 37.7812C270.445 37.8958 270.188 37.987 269.922 38.0547C269.661 38.1224 269.396 38.1562 269.125 38.1562C268.536 38.1562 267.982 38.0573 267.461 37.8594C266.945 37.6615 266.492 37.375 266.102 37C265.716 36.6198 265.411 36.1562 265.188 35.6094C264.964 35.0625 264.852 34.4401 264.852 33.7422C264.852 33.0911 264.964 32.4948 265.188 31.9531C265.411 31.4062 265.716 30.9375 266.102 30.5469C266.492 30.1562 266.945 29.8542 267.461 29.6406C267.982 29.4219 268.536 29.3125 269.125 29.3125C269.396 29.3125 269.664 29.3464 269.93 29.4141C270.195 29.4818 270.453 29.5755 270.703 29.6953C270.953 29.8151 271.19 29.9557 271.414 30.1172C271.643 30.2786 271.857 30.4531 272.055 30.6406L272.883 29.6484H273.398V38ZM271.25 33.7422C271.25 33.4505 271.193 33.1693 271.078 32.8984C270.969 32.6224 270.818 32.3802 270.625 32.1719C270.432 31.9583 270.206 31.7891 269.945 31.6641C269.69 31.5339 269.417 31.4688 269.125 31.4688C268.833 31.4688 268.557 31.5182 268.297 31.6172C268.042 31.7161 267.818 31.862 267.625 32.0547C267.438 32.2474 267.289 32.487 267.18 32.7734C267.07 33.0547 267.016 33.3776 267.016 33.7422C267.016 34.1068 267.07 34.4323 267.18 34.7188C267.289 35 267.438 35.237 267.625 35.4297C267.818 35.6224 268.042 35.7682 268.297 35.8672C268.557 35.9661 268.833 36.0156 269.125 36.0156C269.417 36.0156 269.69 35.9531 269.945 35.8281C270.206 35.6979 270.432 35.5286 270.625 35.3203C270.818 35.1068 270.969 34.8646 271.078 34.5938C271.193 34.3177 271.25 34.0339 271.25 33.7422ZM277.047 41.1875V39.0391L278.234 39.0547C278.443 39.0547 278.643 39.0208 278.836 38.9531C279.029 38.8854 279.206 38.7917 279.367 38.6719C279.534 38.5521 279.68 38.4089 279.805 38.2422C279.93 38.0807 280.031 37.9036 280.109 37.7109C279.875 37.8099 279.635 37.9089 279.391 38.0078C279.151 38.1068 278.909 38.1562 278.664 38.1562C278.148 38.1562 277.664 38.0651 277.211 37.8828C276.758 37.7005 276.359 37.4427 276.016 37.1094C275.677 36.7708 275.409 36.362 275.211 35.8828C275.018 35.3984 274.922 34.8568 274.922 34.2578V29.6328H277.047V34.2578C277.047 34.5547 277.089 34.8151 277.172 35.0391C277.26 35.2578 277.378 35.4427 277.523 35.5938C277.669 35.7396 277.839 35.849 278.031 35.9219C278.229 35.9948 278.44 36.0312 278.664 36.0312C278.883 36.0312 279.089 35.9818 279.281 35.8828C279.479 35.7786 279.651 35.6432 279.797 35.4766C279.943 35.3099 280.057 35.1224 280.141 34.9141C280.224 34.7005 280.266 34.4818 280.266 34.2578V29.6328H282.414V36.9453C282.409 37.5339 282.294 38.0859 282.07 38.6016C281.846 39.1172 281.539 39.5677 281.148 39.9531C280.763 40.3385 280.312 40.6432 279.797 40.8672C279.281 41.0911 278.729 41.2031 278.141 41.2031L277.047 41.1875ZM292.352 30.1562C292.352 30.6198 292.263 31.0573 292.086 31.4688C291.914 31.875 291.674 32.2318 291.367 32.5391C291.065 32.8411 290.708 33.0807 290.297 33.2578C289.891 33.4349 289.456 33.5234 288.992 33.5234C288.831 33.5234 288.688 33.5521 288.562 33.6094C288.443 33.6667 288.341 33.7474 288.258 33.8516C288.18 33.9505 288.12 34.0677 288.078 34.2031C288.036 34.3385 288.016 34.4844 288.016 34.6406V35.2344H285.781V34.6094C285.786 34.151 285.867 33.7188 286.023 33.3125C286.185 32.9062 286.406 32.5547 286.688 32.2578C286.974 31.9557 287.312 31.7188 287.703 31.5469C288.094 31.3698 288.523 31.2812 288.992 31.2812C289.148 31.2812 289.294 31.2526 289.43 31.1953C289.565 31.138 289.682 31.0599 289.781 30.9609C289.885 30.8568 289.966 30.737 290.023 30.6016C290.086 30.4609 290.117 30.3125 290.117 30.1562C290.117 30 290.086 29.8542 290.023 29.7188C289.966 29.5833 289.885 29.4661 289.781 29.3672C289.682 29.263 289.565 29.1823 289.43 29.125C289.294 29.0677 289.148 29.0391 288.992 29.0391H283.859V26.7969H288.992C289.456 26.7969 289.891 26.8854 290.297 27.0625C290.708 27.2396 291.065 27.4818 291.367 27.7891C291.674 28.0911 291.914 28.4453 292.086 28.8516C292.263 29.2578 292.352 29.6927 292.352 30.1562ZM288.242 37.2031C288.242 37.3906 288.206 37.5677 288.133 37.7344C288.065 37.8958 287.971 38.0365 287.852 38.1562C287.732 38.276 287.591 38.3698 287.43 38.4375C287.268 38.5104 287.096 38.5469 286.914 38.5469C286.732 38.5469 286.557 38.5104 286.391 38.4375C286.229 38.3698 286.086 38.276 285.961 38.1562C285.841 38.0365 285.745 37.8958 285.672 37.7344C285.604 37.5677 285.57 37.3906 285.57 37.2031C285.57 37.0208 285.604 36.849 285.672 36.6875C285.745 36.526 285.841 36.3854 285.961 36.2656C286.086 36.1458 286.229 36.0521 286.391 35.9844C286.557 35.9115 286.732 35.875 286.914 35.875C287.096 35.875 287.268 35.9115 287.43 35.9844C287.591 36.0521 287.732 36.1458 287.852 36.2656C287.971 36.3854 288.065 36.526 288.133 36.6875C288.206 36.849 288.242 37.0208 288.242 37.2031Z" fill="#4F547B"/>
<rect x="337" y="10" width="142.03" height="49.66" rx="10" fill="url(#paint0_linear_1_17)"/>
<g clip-path="url(#clip0_1_17)">
<path d="M383.428 40.2033L381.094 37.8033C381.983 36.7366 382.539 35.5366 382.761 34.2033C382.983 32.8699 382.872 31.5588 382.428 30.2699C381.983 28.981 381.25 27.8699 380.228 26.9366C379.205 26.0033 378.028 25.3922 376.694 25.1033C375.361 24.8144 374.039 24.8477 372.728 25.2033C371.416 25.5588 370.272 26.2255 369.294 27.2033C368.316 28.181 367.65 29.3255 367.294 30.6366C366.939 31.9477 366.905 33.2699 367.194 34.6033C367.483 35.9366 368.094 37.1144 369.028 38.1366C369.961 39.1588 371.072 39.8922 372.361 40.3366C373.65 40.781 374.961 40.8922 376.294 40.6699C377.628 40.4477 378.828 39.8922 379.894 39.0033L382.294 41.3366C382.428 41.5144 382.616 41.6033 382.861 41.6033C383.105 41.6033 383.305 41.5255 383.461 41.3699C383.616 41.2144 383.694 41.0144 383.694 40.7699C383.694 40.5255 383.605 40.3366 383.428 40.2033ZM368.694 32.8699C368.694 31.7144 368.972 30.6588 369.528 29.7033C370.083 28.7477 370.839 27.9922 371.794 27.4366C372.75 26.881 373.794 26.6033 374.928 26.6033C376.061 26.6033 377.105 26.881 378.061 27.4366C379.016 27.9922 379.783 28.7477 380.361 29.7033C380.939 30.6588 381.228 31.7033 381.228 32.8366C381.228 33.9699 380.939 35.0144 380.361 35.9699C379.783 36.9255 379.016 37.681 378.061 38.2366C377.105 38.7922 376.061 39.0699 374.928 39.0699C373.794 39.0699 372.75 38.7922 371.794 38.2366C370.839 37.681 370.083 36.9255 369.528 35.9699C368.972 35.0144 368.694 33.981 368.694 32.8699Z" fill="white"/>
</g>
<path d="M400.245 32.5066C400.245 32.072 400.328 31.6643 400.494 31.2834C400.66 30.9026 400.885 30.5706 401.168 30.2874C401.456 29.9993 401.791 29.7722 402.172 29.6062C402.552 29.4402 402.96 29.3572 403.395 29.3572H408.214V31.4592H403.395C403.248 31.4592 403.112 31.4861 402.985 31.5398C402.858 31.5935 402.745 31.6692 402.648 31.7668C402.555 31.8596 402.482 31.9695 402.428 32.0964C402.374 32.2234 402.347 32.3601 402.347 32.5066C402.347 32.6531 402.374 32.7922 402.428 32.9241C402.482 33.051 402.555 33.1633 402.648 33.261C402.745 33.3538 402.858 33.427 402.985 33.4807C403.112 33.5344 403.248 33.5613 403.395 33.5613H405.497C405.931 33.5613 406.339 33.6443 406.72 33.8103C407.106 33.9714 407.44 34.196 407.723 34.4841C408.011 34.7673 408.236 35.1018 408.397 35.4875C408.563 35.8684 408.646 36.2761 408.646 36.7107C408.646 37.1453 408.563 37.553 408.397 37.9338C408.236 38.3147 408.011 38.6492 407.723 38.9373C407.44 39.2205 407.106 39.4451 406.72 39.6111C406.339 39.7771 405.931 39.8601 405.497 39.8601H400.831V37.7581H405.497C405.643 37.7581 405.78 37.7312 405.907 37.6775C406.034 37.6238 406.144 37.5505 406.237 37.4578C406.334 37.3601 406.41 37.2478 406.464 37.1208C406.517 36.9939 406.544 36.8572 406.544 36.7107C406.544 36.5642 406.517 36.4275 406.464 36.3005C406.41 36.1736 406.334 36.0637 406.237 35.9709C406.144 35.8733 406.034 35.7976 405.907 35.7439C405.78 35.6902 405.643 35.6633 405.497 35.6633H403.395C402.96 35.6633 402.552 35.5803 402.172 35.4143C401.791 35.2483 401.456 35.0237 401.168 34.7405C400.885 34.4524 400.66 34.1179 400.494 33.7371C400.328 33.3513 400.245 32.9412 400.245 32.5066ZM412.938 37.9412C413.016 37.9656 413.094 37.9827 413.173 37.9924C413.251 37.9973 413.329 37.9998 413.407 37.9998C413.602 37.9998 413.79 37.9729 413.971 37.9192C414.152 37.8655 414.32 37.7898 414.476 37.6921C414.637 37.5896 414.779 37.4675 414.901 37.3259C415.028 37.1794 415.131 37.0183 415.209 36.8425L416.674 38.3147C416.488 38.5784 416.273 38.8152 416.029 39.0251C415.79 39.2351 415.529 39.4133 415.245 39.5598C414.967 39.7063 414.672 39.8162 414.359 39.8894C414.052 39.9675 413.734 40.0066 413.407 40.0066C412.855 40.0066 412.335 39.9041 411.847 39.699C411.364 39.4939 410.939 39.2083 410.573 38.842C410.211 38.4758 409.926 38.0413 409.716 37.5383C409.506 37.0305 409.401 36.4739 409.401 35.8684C409.401 35.2483 409.506 34.6819 409.716 34.1692C409.926 33.6565 410.211 33.2195 410.573 32.8582C410.939 32.4968 411.364 32.2161 411.847 32.0159C412.335 31.8157 412.855 31.7156 413.407 31.7156C413.734 31.7156 414.054 31.7546 414.366 31.8328C414.679 31.9109 414.974 32.0232 415.253 32.1697C415.536 32.3162 415.8 32.4968 416.044 32.7117C416.288 32.9216 416.503 33.1584 416.688 33.4221L412.938 37.9412ZM413.964 33.8176C413.871 33.7834 413.778 33.7615 413.685 33.7517C413.597 33.7419 413.505 33.7371 413.407 33.7371C413.134 33.7371 412.875 33.7883 412.631 33.8909C412.391 33.9885 412.181 34.1301 412.001 34.3157C411.825 34.5012 411.686 34.7258 411.583 34.9895C411.481 35.2483 411.429 35.5413 411.429 35.8684C411.429 35.9417 411.432 36.0247 411.437 36.1174C411.447 36.2102 411.459 36.3054 411.473 36.4031C411.493 36.4958 411.515 36.5862 411.539 36.6741C411.564 36.762 411.595 36.8401 411.635 36.9084L413.964 33.8176ZM425.236 39.8601H424.752L423.976 38.7834C423.785 38.9543 423.583 39.1155 423.368 39.2668C423.158 39.4133 422.936 39.5427 422.701 39.655C422.467 39.7625 422.225 39.8479 421.976 39.9114C421.732 39.9749 421.483 40.0066 421.229 40.0066C420.677 40.0066 420.157 39.9138 419.669 39.7283C419.186 39.5427 418.761 39.2742 418.395 38.9226C418.033 38.5662 417.748 38.1316 417.538 37.6189C417.328 37.1062 417.223 36.5227 417.223 35.8684C417.223 35.2581 417.328 34.699 417.538 34.1912C417.748 33.6785 418.033 33.239 418.395 32.8728C418.761 32.5066 419.186 32.2234 419.669 32.0232C420.157 31.8181 420.677 31.7156 421.229 31.7156C421.483 31.7156 421.735 31.7473 421.984 31.8108C422.233 31.8743 422.474 31.9622 422.709 32.0745C422.943 32.1868 423.165 32.3186 423.375 32.47C423.59 32.6213 423.79 32.7849 423.976 32.9607L424.752 32.0305H425.236V39.8601ZM423.221 35.8684C423.221 35.595 423.168 35.3313 423.06 35.0774C422.958 34.8186 422.816 34.5916 422.636 34.3962C422.455 34.196 422.242 34.0374 421.998 33.9202C421.759 33.7981 421.503 33.7371 421.229 33.7371C420.956 33.7371 420.697 33.7834 420.453 33.8762C420.214 33.969 420.004 34.1057 419.823 34.2864C419.647 34.467 419.508 34.6917 419.406 34.9602C419.303 35.2239 419.252 35.5266 419.252 35.8684C419.252 36.2102 419.303 36.5154 419.406 36.7839C419.508 37.0476 419.647 37.2698 419.823 37.4504C420.004 37.6311 420.214 37.7678 420.453 37.8606C420.697 37.9534 420.956 37.9998 421.229 37.9998C421.503 37.9998 421.759 37.9412 421.998 37.824C422.242 37.7019 422.455 37.5432 422.636 37.3479C422.816 37.1477 422.958 36.9207 423.06 36.6667C423.168 36.408 423.221 36.1418 423.221 35.8684ZM428.766 39.8601H426.766V32.0159H427.25L427.909 32.946C428.231 32.6531 428.597 32.4285 429.008 32.2722C429.418 32.1111 429.843 32.0305 430.282 32.0305H432.047V34.0227H430.282C430.072 34.0227 429.874 34.0618 429.689 34.1399C429.503 34.218 429.342 34.3254 429.205 34.4622C429.069 34.5989 428.961 34.76 428.883 34.9456C428.805 35.1311 428.766 35.3289 428.766 35.5388V39.8601ZM439.686 33.5759L438.221 35.0481C438.148 34.843 438.048 34.6599 437.921 34.4988C437.794 34.3328 437.65 34.1936 437.489 34.0813C437.333 33.969 437.162 33.8835 436.976 33.825C436.791 33.7664 436.6 33.7371 436.405 33.7371C436.132 33.7371 435.873 33.7932 435.629 33.9055C435.389 34.0178 435.179 34.1765 434.999 34.3816C434.823 34.5818 434.684 34.821 434.581 35.0994C434.479 35.3777 434.427 35.6853 434.427 36.0222C434.427 36.2957 434.479 36.552 434.581 36.7913C434.684 37.0305 434.823 37.2405 434.999 37.4211C435.179 37.6018 435.389 37.7434 435.629 37.8459C435.873 37.9485 436.132 37.9998 436.405 37.9998C436.6 37.9998 436.788 37.9729 436.969 37.9192C437.15 37.8655 437.318 37.7898 437.474 37.6921C437.636 37.5896 437.777 37.4675 437.899 37.3259C438.026 37.1794 438.129 37.0183 438.207 36.8425L439.672 38.3147C439.486 38.5784 439.271 38.8152 439.027 39.0251C438.788 39.2351 438.527 39.4133 438.243 39.5598C437.965 39.7063 437.67 39.8162 437.357 39.8894C437.05 39.9675 436.732 40.0066 436.405 40.0066C435.853 40.0066 435.333 39.9041 434.845 39.699C434.362 39.489 433.937 39.2034 433.571 38.842C433.209 38.4807 432.924 38.0583 432.714 37.575C432.504 37.0916 432.399 36.574 432.399 36.0222C432.399 35.4216 432.504 34.8601 432.714 34.3376C432.924 33.8152 433.209 33.3611 433.571 32.9753C433.937 32.5847 434.362 32.2771 434.845 32.0525C435.333 31.8279 435.853 31.7156 436.405 31.7156C436.732 31.7156 437.052 31.7571 437.365 31.8401C437.682 31.9231 437.982 32.0452 438.265 32.2063C438.553 32.3625 438.817 32.5554 439.056 32.7849C439.301 33.0144 439.511 33.2781 439.686 33.5759ZM442.667 39.8601H440.668V28.8958H442.667V32.3601C442.907 32.1794 443.153 32.0525 443.407 31.9792C443.661 31.9011 443.92 31.8621 444.183 31.8621C444.667 31.8621 445.121 31.9548 445.546 32.1404C445.97 32.321 446.339 32.5725 446.652 32.8948C446.969 33.2122 447.218 33.5857 447.399 34.0154C447.584 34.4402 447.677 34.8943 447.677 35.3777V39.8601H445.663V35.3777H445.677C445.677 35.1726 445.638 34.9797 445.56 34.7991C445.482 34.6135 445.375 34.4524 445.238 34.3157C445.101 34.179 444.943 34.0715 444.762 33.9934C444.581 33.9153 444.388 33.8762 444.183 33.8762C443.973 33.8762 443.776 33.9153 443.59 33.9934C443.405 34.0715 443.243 34.179 443.107 34.3157C442.97 34.4524 442.863 34.6135 442.784 34.7991C442.706 34.9797 442.667 35.1726 442.667 35.3777V39.8601Z" fill="white"/>
<defs>
<linearGradient id="paint0_linear_1_17" x1="337" y1="15" x2="479" y2="60" gradientUnits="userSpaceOnUse">
<stop stop-color="#3023B2"/>
<stop offset="1" stop-color="#7F56D9"/>
</linearGradient>
<clipPath id="clip0_1_17">
<rect width="20" height="20" fill="white" transform="matrix(1 0 0 -1 367 43.27)"/>
</clipPath>
</defs>
</svg>
